<svg xmlns="http://www.w3.org/2000/svg" width="960" height="540" viewBox="0 0 960 540" role="img" aria-label="DSH Proof plugin comparison card"><style>.title{font:650 24px system-ui;fill:#18333f}.name{font:650 20px system-ui;fill:#18333f}.small{font:11px system-ui;fill:#59717e}.label{font:13px system-ui;fill:#496370}.value{font:600 14px ui-monospace,monospace;fill:#18333f;text-anchor:end}</style><rect width="960" height="540" rx="20" fill="#fff"/><rect x="1" y="1" width="958" height="538" rx="19" fill="none" stroke="#dce6ea"/><text x="32" y="32" class="small">DSH / PROOF · PLUGIN COMPARISON</text><text x="32" y="66" class="title">Both variants passed the success check</text><g><title>标准模式 · 标准模式</title><rect x="32" y="92" width="440" height="147" rx="10" fill="#f4f7f8"/><text x="48" y="116" class="small">A · BASELINE</text><text x="48" y="150" class="name">标准模式</text><text x="48" y="176" class="small">Preset: 标准模式</text><text x="48" y="200" class="small">deepseek-v4-flash</text><text x="48" y="222" class="small">Check: pass</text></g><g><title>dsh-expert-mode · 专家模式 v0.9.2</title><rect x="488" y="92" width="440" height="147" rx="10" fill="#f0f7f5"/><text x="504" y="116" class="small">B · CANDIDATE</text><text x="504" y="150" class="name">dsh-expert-mode</text><text x="504" y="176" class="small">v0.9.2 · Preset: 专家模式 v0.9.2</text><text x="504" y="200" class="small">deepseek-v4-flash</text><text x="504" y="222" class="small">Check: pass</text></g><text x="32" y="272" class="small">SINGLE COMPARISON · not a stable plugin ranking</text><text x="620" y="302" class="small" text-anchor="end">A · BASELINE</text><text x="906" y="302" class="small" text-anchor="end">B · CANDIDATE</text><line x1="32" y1="348" x2="928" y2="348" stroke="#e0e8ec"/><text x="32" y="336" class="label">Recorded tokens (incl. cache)</text><text x="620" y="336" class="value">71,133</text><text x="906" y="336" class="value">108,511</text><line x1="32" y1="380" x2="928" y2="380" stroke="#e0e8ec"/><text x="32" y="368" class="label">Agent time</text><text x="620" y="368" class="value">20.9 s</text><text x="906" y="368" class="value">18.1 s</text><line x1="32" y1="412" x2="928" y2="412" stroke="#e0e8ec"/><text x="32" y="400" class="label">Tool calls</text><text x="620" y="400" class="value">8</text><text x="906" y="400" class="value">7</text><line x1="32" y1="444" x2="928" y2="444" stroke="#e0e8ec"/><text x="32" y="432" class="label">Tool failures</text><text x="620" y="432" class="value">0</text><text x="906" y="432" class="value">0</text><text x="32" y="476" class="small">Explicit outcome: pass → pass · winner: undetermined · 1 paired trials</text><text x="32" y="502" class="small">Token totals include cache activity, not monetary cost. Tests cover only their asserted cases.</text><text x="32" y="522" class="small">Plugin identity not recorded · showing preset/session / Preset registration · declared metadata</text></svg>